<svg xmlns="http://www.w3.org/2000/svg" viewBox="0 0 64 64" fill="none">
  <defs>
    <linearGradient id="g1" x1="0" y1="0" x2="1" y2="1">
      <stop offset="0%" stop-color="#2563eb"/>
      <stop offset="100%" stop-color="#06b6d4"/>
    </linearGradient>
  </defs>
  <circle cx="32" cy="32" r="28" fill="url(#g1)" opacity="0.12"/>
  <path d="M32 8C32 8 18 24 18 34c0 7.7 6.3 14 14 14s14-6.3 14-14C46 24 32 8 32 8z" fill="url(#g1)" opacity="0.25"/>
  <path d="M32 8C32 8 18 24 18 34c0 7.7 6.3 14 14 14s14-6.3 14-14C46 24 32 8 32 8z" stroke="url(#g1)" stroke-width="2.5" stroke-linecap="round" stroke-linejoin="round"/>
  <path d="M24 44l4-6 4 4 4-8 4 5 4-7" stroke="#2563eb" stroke-width="2" stroke-linecap="round" stroke-linejoin="round"/>
  <circle cx="28" cy="32" r="2" fill="#2563eb" opacity="0.5"/>
  <circle cx="36" cy="28" r="1.5" fill="#06b6d4" opacity="0.5"/>
  <path d="M20 52h24" stroke="#2563eb" stroke-width="1.5" stroke-linecap="round" opacity="0.4"/>
  <path d="M22 55h20" stroke="#2563eb" stroke-width="1" stroke-linecap="round" opacity="0.25"/>
</svg>
